<?xml version="1.0" encoding="UTF-8" standalone="no"?><!DOCTYPE svg PUBLIC "-//W3C//DTD SVG 1.1//EN" "http://www.w3.org/Graphics/SVG/1.1/DTD/svg11.dtd"><svg width="100%" height="100%" viewBox="0 0 4267 4267" version="1.1" xmlns="http://www.w3.org/2000/svg" xmlns:xlink="http://www.w3.org/1999/xlink" xml:space="preserve" xmlns:serif="http://www.serif.com/" style="fill-rule:evenodd;clip-rule:evenodd;stroke-linejoin:round;stroke-miterlimit:2;"><g id="Background"><path d="M952.069,1342.013c613.791,-0.757 613.354,0.483 666.681,-0.428c264.148,-4.512 419.274,106.806 485.325,192.255c162.523,210.255 108.132,512.535 -105.153,644.756c-111.946,69.399 -169.771,52.359 -153.965,72.642c26.665,34.218 399.494,578.463 399.765,579.72c3.199,14.809 -6.597,7.147 -21.82,7.096c-18.797,-0.062 -353.937,0.433 -358.161,-0.013c-6.261,-0.662 -7.819,-0.826 -48.269,-62.159c-132.857,-201.448 -451.363,-697.749 -450.946,-698.558c3.691,-7.156 146.131,2.8 249.271,-11.524c174.954,-24.298 225.546,-174.983 212.675,-267.932c-18.96,-136.917 -87.721,-173.177 -162.744,-196.209c-58.883,-18.077 -345.315,-8.994 -346.169,-8.096c-5.035,5.301 -0.994,1022.692 -2.21,1233.571c-0.079,13.738 -7.434,11.109 -101.775,11.1c-281.62,-0.027 -283.498,0.488 -285.558,-3.864c-1.61,-3.401 -0.902,-1482.648 -0.498,-1486.2c1.099,-9.67 5.41,-4.955 23.551,-6.156Z" style="fill:#fefefe;fill-opacity:1;"/><path d="M2814.676,1812.691c28.065,3.62 347.279,25.398 472.989,294.397c8.137,17.411 46.236,98.938 40.875,236.726c-2.06,52.943 -5.178,55.568 -13.907,55.652c-60.668,0.584 -387.23,3.727 -758.385,0.288c-77.044,-0.714 -80.796,-0.01 -80.333,6.421c2.238,31.099 26.08,202.754 263.669,203.684c144.213,0.565 353.968,-43.097 550.003,-116.099c6.838,-2.546 16.679,-6.927 11.656,8.052c-10.9,32.502 -58.771,220.813 -65.76,225.354c-10.748,6.982 -102.89,52.896 -203.953,84.041c-375.332,115.667 -823.006,25.612 -915.86,-330.265c-93.569,-358.617 242.526,-708.996 699.006,-668.251Zm-41.887,212.079c168.79,19.326 178.878,204.534 173.625,208.904c-3.134,2.607 -3.843,1.323 -360.996,2.586c-100.902,0.357 -101.407,-1.85 -102.069,-4.119c-4.57,-15.656 37.464,-240.813 289.441,-207.371Z" style="fill:#fefefe;fill-opacity:1;"/></g></svg>