<?xml version="1.0" encoding="UTF-8" standalone="no"?><!DOCTYPE svg PUBLIC "-//W3C//DTD SVG 1.1//EN" "http://www.w3.org/Graphics/SVG/1.1/DTD/svg11.dtd"><svg width="100%" height="100%" viewBox="0 0 5334 1500" version="1.1" xmlns="http://www.w3.org/2000/svg" xmlns:xlink="http://www.w3.org/1999/xlink" xml:space="preserve" xmlns:serif="http://www.serif.com/" style="fill-rule:evenodd;clip-rule:evenodd;stroke-linecap:round;stroke-linejoin:round;stroke-miterlimit:2;"><g><path d="M1463.64,233.255l0,1033.489c0,104.094 -84.511,188.604 -188.604,188.604l-1039.987,0c-104.094,0 -188.604,-84.511 -188.604,-188.604l0,-1033.489c0,-104.094 84.511,-188.604 188.604,-188.604l1039.987,-0c104.094,0 188.604,84.511 188.604,188.604Z" style="fill:#fff;"/><clipPath id="_clip1"><path d="M1463.64,233.255l0,1033.489c0,104.094 -84.511,188.604 -188.604,188.604l-1039.987,0c-104.094,0 -188.604,-84.511 -188.604,-188.604l0,-1033.489c0,-104.094 84.511,-188.604 188.604,-188.604l1039.987,-0c104.094,0 188.604,84.511 188.604,188.604Z"/></clipPath><g clip-path="url(#_clip1)"><path d="M47.61,1457.432l1414.865,-1414.865" style="fill:none;stroke:#000;stroke-width:4.17px;"/><path d="M44.361,1431.219l1388.651,-1388.651" style="fill:none;stroke:#000;stroke-width:4.17px;"/><path d="M44.361,1401.756l1359.188,-1359.188" style="fill:none;stroke:#000;stroke-width:4.17px;"/><path d="M44.361,1372.293l1329.725,-1329.725" style="fill:none;stroke:#000;stroke-width:4.17px;"/><path d="M44.361,1342.83l1300.263,-1300.263" style="fill:none;stroke:#000;stroke-width:4.17px;"/><path d="M44.361,1313.368l1270.8,-1270.8" style="fill:none;stroke:#000;stroke-width:4.17px;"/><path d="M44.361,1283.905l1241.337,-1241.337" style="fill:none;stroke:#000;stroke-width:4.17px;"/><path d="M44.361,1254.442l1211.874,-1211.874" style="fill:none;stroke:#000;stroke-width:4.17px;"/><path d="M44.361,1224.979l1182.412,-1182.412" style="fill:none;stroke:#000;stroke-width:4.17px;"/><path d="M44.361,1195.516l1152.949,-1152.949" style="fill:none;stroke:#000;stroke-width:4.17px;"/><path d="M44.361,1166.054l1123.486,-1123.486" style="fill:none;stroke:#000;stroke-width:4.17px;"/><path d="M44.361,1136.591l1094.023,-1094.023" style="fill:none;stroke:#000;stroke-width:4.17px;"/><path d="M44.361,1107.128l1064.56,-1064.56" style="fill:none;stroke:#000;stroke-width:4.17px;"/><path d="M44.361,1077.665l1035.098,-1035.098" style="fill:none;stroke:#000;stroke-width:4.17px;"/><path d="M44.361,1048.202l1005.635,-1005.635" style="fill:none;stroke:#000;stroke-width:4.17px;"/><path d="M44.361,1018.74l976.172,-976.172" style="fill:none;stroke:#000;stroke-width:4.17px;"/><path d="M44.361,989.277l946.709,-946.709" style="fill:none;stroke:#000;stroke-width:4.17px;"/><path d="M44.361,959.814l917.247,-917.247" style="fill:none;stroke:#000;stroke-width:4.17px;"/><path d="M44.361,930.351l887.784,-887.784" style="fill:none;stroke:#000;stroke-width:4.17px;"/><path d="M44.361,900.889l858.321,-858.321" style="fill:none;stroke:#000;stroke-width:4.17px;"/><path d="M44.361,871.426l828.858,-828.858" style="fill:none;stroke:#000;stroke-width:4.17px;"/><path d="M44.361,841.963l799.395,-799.395" style="fill:none;stroke:#000;stroke-width:4.17px;"/><path d="M44.361,812.5l769.933,-769.933" style="fill:none;stroke:#000;stroke-width:4.17px;"/><path d="M44.361,783.037l740.47,-740.47" style="fill:none;stroke:#000;stroke-width:4.17px;"/><path d="M44.361,753.575l711.007,-711.007" style="fill:none;stroke:#000;stroke-width:4.17px;"/><path d="M44.361,724.112l681.544,-681.544" style="fill:none;stroke:#000;stroke-width:4.17px;"/><path d="M44.361,694.649l652.081,-652.081" style="fill:none;stroke:#000;stroke-width:4.17px;"/><path d="M44.361,665.186l622.619,-622.619" style="fill:none;stroke:#000;stroke-width:4.17px;"/><path d="M44.361,635.724l593.156,-593.156" style="fill:none;stroke:#000;stroke-width:4.17px;"/><path d="M44.361,606.261l563.693,-563.693" style="fill:none;stroke:#000;stroke-width:4.17px;"/><path d="M44.361,576.798l534.23,-534.23" style="fill:none;stroke:#000;stroke-width:4.17px;"/><path d="M44.361,547.335l504.768,-504.768" style="fill:none;stroke:#000;stroke-width:4.17px;"/><path d="M44.361,517.872l475.305,-475.305" style="fill:none;stroke:#000;stroke-width:4.17px;"/><path d="M44.361,488.41l445.842,-445.842" style="fill:none;stroke:#000;stroke-width:4.17px;"/><path d="M44.361,458.947l416.379,-416.379" style="fill:none;stroke:#000;stroke-width:4.17px;"/><path d="M44.361,429.484l386.916,-386.916" style="fill:none;stroke:#000;stroke-width:4.17px;"/><path d="M44.361,400.021l357.454,-357.454" style="fill:none;stroke:#000;stroke-width:4.17px;"/><path d="M44.361,370.558l327.991,-327.991" style="fill:none;stroke:#000;stroke-width:4.17px;"/><path d="M44.361,341.096l298.528,-298.528" style="fill:none;stroke:#000;stroke-width:4.17px;"/><path d="M44.361,311.633l269.065,-269.065" style="fill:none;stroke:#000;stroke-width:4.17px;"/><path d="M44.361,282.17l239.603,-239.603" style="fill:none;stroke:#000;stroke-width:4.17px;"/><path d="M44.361,252.707l210.14,-210.14" style="fill:none;stroke:#000;stroke-width:4.17px;"/><path d="M44.361,223.245l180.677,-180.677" style="fill:none;stroke:#000;stroke-width:4.17px;"/><path d="M44.361,193.782l151.214,-151.214" style="fill:none;stroke:#000;stroke-width:4.17px;"/><path d="M44.361,164.319l121.751,-121.751" style="fill:none;stroke:#000;stroke-width:4.17px;"/><path d="M44.361,134.856l92.289,-92.289" style="fill:none;stroke:#000;stroke-width:4.17px;"/><path d="M44.361,105.393l62.826,-62.826" style="fill:none;stroke:#000;stroke-width:4.17px;"/><path d="M44.361,75.931l33.363,-33.363" style="fill:none;stroke:#000;stroke-width:4.17px;"/><path d="M44.361,46.468l3.9,-3.9" style="fill:none;stroke:#000;stroke-width:4.17px;"/><path d="M77.073,1457.432l1388.651,-1388.651" style="fill:none;stroke:#000;stroke-width:4.17px;"/><path d="M106.535,1457.432l1359.188,-1359.188" style="fill:none;stroke:#000;stroke-width:4.17px;"/><path d="M135.998,1457.432l1329.725,-1329.725" style="fill:none;stroke:#000;stroke-width:4.17px;"/><path d="M165.461,1457.432l1300.263,-1300.263" style="fill:none;stroke:#000;stroke-width:4.17px;"/><path d="M194.924,1457.432l1270.8,-1270.8" style="fill:none;stroke:#000;stroke-width:4.17px;"/><path d="M224.386,1457.432l1241.337,-1241.337" style="fill:none;stroke:#000;stroke-width:4.17px;"/><path d="M253.849,1457.432l1211.874,-1211.874" style="fill:none;stroke:#000;stroke-width:4.17px;"/><path d="M283.312,1457.432l1182.412,-1182.412" style="fill:none;stroke:#000;stroke-width:4.17px;"/><path d="M312.775,1457.432l1152.949,-1152.949" style="fill:none;stroke:#000;stroke-width:4.17px;"/><path d="M342.238,1457.432l1123.486,-1123.486" style="fill:none;stroke:#000;stroke-width:4.17px;"/><path d="M371.7,1457.432l1094.023,-1094.023" style="fill:none;stroke:#000;stroke-width:4.17px;"/><path d="M401.163,1457.432l1064.56,-1064.56" style="fill:none;stroke:#000;stroke-width:4.17px;"/><path d="M430.626,1457.432l1035.098,-1035.098" style="fill:none;stroke:#000;stroke-width:4.17px;"/><path d="M460.089,1457.432l1005.635,-1005.635" style="fill:none;stroke:#000;stroke-width:4.17px;"/><path d="M489.551,1457.432l976.172,-976.172" style="fill:none;stroke:#000;stroke-width:4.17px;"/><path d="M519.014,1457.432l946.709,-946.709" style="fill:none;stroke:#000;stroke-width:4.17px;"/><path d="M548.477,1457.432l917.247,-917.247" style="fill:none;stroke:#000;stroke-width:4.17px;"/><path d="M577.94,1457.432l887.784,-887.784" style="fill:none;stroke:#000;stroke-width:4.17px;"/><path d="M607.403,1457.432l858.321,-858.321" style="fill:none;stroke:#000;stroke-width:4.17px;"/><path d="M636.865,1457.432l828.858,-828.858" style="fill:none;stroke:#000;stroke-width:4.17px;"/><path d="M666.328,1457.432l799.395,-799.395" style="fill:none;stroke:#000;stroke-width:4.17px;"/><path d="M695.791,1457.432l769.933,-769.933" style="fill:none;stroke:#000;stroke-width:4.17px;"/><path d="M725.254,1457.432l740.47,-740.47" style="fill:none;stroke:#000;stroke-width:4.17px;"/><path d="M754.717,1457.432l711.007,-711.007" style="fill:none;stroke:#000;stroke-width:4.17px;"/><path d="M784.179,1457.432l681.544,-681.544" style="fill:none;stroke:#000;stroke-width:4.17px;"/><path d="M813.642,1457.432l652.081,-652.081" style="fill:none;stroke:#000;stroke-width:4.17px;"/><path d="M843.105,1457.432l622.619,-622.619" style="fill:none;stroke:#000;stroke-width:4.17px;"/><path d="M872.568,1457.432l593.156,-593.156" style="fill:none;stroke:#000;stroke-width:4.17px;"/><path d="M902.03,1457.432l563.693,-563.693" style="fill:none;stroke:#000;stroke-width:4.17px;"/><path d="M931.493,1457.432l534.23,-534.23" style="fill:none;stroke:#000;stroke-width:4.17px;"/><path d="M960.956,1457.432l504.768,-504.768" style="fill:none;stroke:#000;stroke-width:4.17px;"/><path d="M990.419,1457.432l475.305,-475.305" style="fill:none;stroke:#000;stroke-width:4.17px;"/><path d="M1019.882,1457.432l445.842,-445.842" style="fill:none;stroke:#000;stroke-width:4.17px;"/><path d="M1049.344,1457.432l416.379,-416.379" style="fill:none;stroke:#000;stroke-width:4.17px;"/><path d="M1078.807,1457.432l386.916,-386.916" style="fill:none;stroke:#000;stroke-width:4.17px;"/><path d="M1108.27,1457.432l357.454,-357.454" style="fill:none;stroke:#000;stroke-width:4.17px;"/><path d="M1137.733,1457.432l327.991,-327.991" style="fill:none;stroke:#000;stroke-width:4.17px;"/><path d="M1167.195,1457.432l298.528,-298.528" style="fill:none;stroke:#000;stroke-width:4.17px;"/><path d="M1196.658,1457.432l269.065,-269.065" style="fill:none;stroke:#000;stroke-width:4.17px;"/><path d="M1226.121,1457.432l239.603,-239.603" style="fill:none;stroke:#000;stroke-width:4.17px;"/><path d="M1255.584,1457.432l210.14,-210.14" style="fill:none;stroke:#000;stroke-width:4.17px;"/><path d="M1285.047,1457.432l180.677,-180.677" style="fill:none;stroke:#000;stroke-width:4.17px;"/><path d="M1314.509,1457.432l151.214,-151.214" style="fill:none;stroke:#000;stroke-width:4.17px;"/><path d="M1343.972,1457.432l121.751,-121.751" style="fill:none;stroke:#000;stroke-width:4.17px;"/><path d="M1373.435,1457.432l92.289,-92.289" style="fill:none;stroke:#000;stroke-width:4.17px;"/><path d="M1402.898,1457.432l62.826,-62.826" style="fill:none;stroke:#000;stroke-width:4.17px;"/><path d="M1432.361,1457.432l33.363,-33.363" style="fill:none;stroke:#000;stroke-width:4.17px;"/><path d="M1461.823,1457.432l3.9,-3.9" style="fill:none;stroke:#000;stroke-width:4.17px;"/></g><path d="M1463.64,233.255l0,1033.489c0,104.094 -84.511,188.604 -188.604,188.604l-1039.987,0c-104.094,0 -188.604,-84.511 -188.604,-188.604l0,-1033.489c0,-104.094 84.511,-188.604 188.604,-188.604l1039.987,-0c104.094,0 188.604,84.511 188.604,188.604Z" style="fill:none;stroke:#000;stroke-width:4.17px;stroke-miterlimit:1.5;"/></g><g><path d="M219.138,407.554c280.72,-0.346 280.52,0.221 304.91,-0.196c120.809,-2.064 191.757,48.848 221.966,87.929c74.331,96.161 49.455,234.41 -48.092,294.882c-51.199,31.74 -77.646,23.947 -70.417,33.223c12.195,15.65 182.71,264.563 182.834,265.138c1.463,6.773 -3.017,3.269 -9.979,3.245c-8.597,-0.028 -161.875,0.198 -163.807,-0.006c-2.863,-0.303 -3.576,-0.378 -22.076,-28.429c-60.763,-92.133 -206.433,-319.119 -206.242,-319.489c1.688,-3.273 66.834,1.281 114.005,-5.271c80.016,-11.113 103.154,-80.029 97.268,-122.54c-8.671,-62.62 -40.12,-79.203 -74.432,-89.737c-26.93,-8.268 -157.931,-4.113 -158.322,-3.703c-2.303,2.424 -0.455,467.733 -1.011,564.179c-0.036,6.283 -3.4,5.081 -46.547,5.077c-128.8,-0.012 -129.659,0.223 -130.601,-1.767c-0.736,-1.555 -0.413,-678.096 -0.228,-679.72c0.503,-4.423 2.474,-2.266 10.771,-2.815l0,-0Z" style="fill:#fefefe;stroke:url(#_Linear2);stroke-width:4.17px;stroke-linecap:butt;"/><path d="M1066.696,614.295c12.836,1.656 158.83,11.616 216.324,134.644c3.721,7.963 21.146,45.25 18.694,108.268c-0.942,24.214 -2.368,25.414 -6.36,25.453c-27.747,0.267 -177.101,1.705 -346.851,0.132c-35.236,-0.327 -36.952,-0.005 -36.741,2.937c1.024,14.223 11.928,92.73 120.59,93.156c65.956,0.258 161.889,-19.711 251.546,-53.098c3.127,-1.164 7.628,-3.168 5.331,3.683c-4.985,14.865 -26.879,100.99 -30.076,103.067c-4.916,3.193 -47.057,24.192 -93.279,38.437c-171.66,52.901 -376.406,11.714 -418.873,-151.048c-42.794,-164.015 110.92,-324.263 319.694,-305.628Zm-19.157,96.995c77.197,8.839 81.811,93.545 79.408,95.543c-1.433,1.192 -1.758,0.605 -165.103,1.183c-46.148,0.163 -46.379,-0.846 -46.682,-1.884c-2.09,-7.16 17.134,-110.137 132.377,-94.842l-0,0Z" style="fill:#fefefe;stroke:url(#_Linear3);stroke-width:4.17px;stroke-linecap:butt;"/></g><g><g transform="matrix(729.791978,0,0,729.791978,5136.233175,1314.322007)"></g><text x="1736.001px" y="1314.322px" style="font-family:'BIZ-UDPGothic', 'BIZ UDPGothic', sans-serif;font-size:729.792px;fill:#525252;">ReBORN</text><g transform="matrix(552.134216,0,0,552.134216,5067.815177,601.032261)"></g><text x="1777.117px" y="601.032px" style="font-family:'BIZ-UDPMincho-Medium', 'BIZ UDPMincho', serif;font-weight:500;font-size:552.134px;fill:#525252;">AppPainter</text></g><defs><linearGradient id="_Linear2" x1="0" y1="0" x2="1" y2="0" gradientUnits="userSpaceOnUse" gradientTransform="matrix(172.42403,0,0,108.044075,-182.783459,-123.897676)"><stop offset="0" style="stop-color:#fff;stop-opacity:1"/><stop offset="0.61" style="stop-color:#707070;stop-opacity:1"/><stop offset="1" style="stop-color:#000;stop-opacity:1"/></linearGradient><linearGradient id="_Linear3" x1="0" y1="0" x2="1" y2="0" gradientUnits="userSpaceOnUse" gradientTransform="matrix(172.42403,0,0,108.044075,-187.097503,-132.423933)"><stop offset="0" style="stop-color:#fff;stop-opacity:1"/><stop offset="0.61" style="stop-color:#707070;stop-opacity:1"/><stop offset="1" style="stop-color:#000;stop-opacity:1"/></linearGradient></defs></svg>